<svg width="38" height="38" viewBox="0 0 38 38" fill="none" xmlns="http://www.w3.org/2000/svg">
<circle opacity="0.15" cx="19" cy="19" r="18.5" stroke="#798DA3"/>
<g clip-path="url(#clip0_1_683)">
<path d="M19 11.2C16.684 11.2 14.8 13.084 14.8 15.4V22.6C14.8 22.93 14.5312 23.2 14.2 23.2C13.8688 23.2 13.6 22.93 13.6 22.6V19.6H10V22.6C10 24.916 11.884 26.8 14.2 26.8C16.516 26.8 18.4 24.916 18.4 22.6V15.4C18.4 15.0688 18.6688 14.8 19 14.8C19.3312 14.8 19.6 15.0688 19.6 15.4V17.6788L21.4 18.8788L23.2 17.6788V15.4C23.2 13.084 21.316 11.2 19 11.2Z" fill="#798DA3"/>
<path d="M24.4 19.5999V22.5999C24.4 22.9299 24.13 23.1999 23.8 23.1999C23.47 23.1999 23.2 22.9299 23.2 22.5999V19.1211L21.7324 20.0991C21.6316 20.1663 21.5164 20.1999 21.4 20.1999C21.2836 20.1999 21.1684 20.1663 21.0676 20.0991L19.6 19.1211V22.5999C19.6 24.9159 21.484 26.7999 23.8 26.7999C26.116 26.7999 28 24.9159 28 22.5999V19.5999H24.4Z" fill="#798DA3"/>
</g>
<defs>
<clipPath id="clip0_1_683">
<rect width="18" height="18" fill="white" transform="translate(10 10)"/>
</clipPath>
</defs>
</svg>
