<svg width="38" height="38" viewBox="0 0 38 38" fill="none" xmlns="http://www.w3.org/2000/svg">
<circle opacity="0.15" cx="19" cy="19" r="18.5" stroke="#798DA3"/>
<path d="M21.3836 15.0075C21.3836 13.7363 21.8715 13.0747 22.5606 13.0747C23.2168 13.0747 23.654 13.6685 23.654 14.872C23.654 15.5568 23.4719 16.3073 23.3375 16.7508C23.3386 16.7519 23.9916 17.9003 25.7783 17.5478C26.1573 16.6989 26.3637 15.5992 26.3637 14.6349C26.3637 12.0406 25.0512 10.5312 22.6463 10.5312C20.1727 10.5312 18.7268 12.4481 18.7268 14.9747C18.7268 17.478 19.888 19.6277 21.8017 20.6068C20.9972 22.2294 19.9726 23.6594 18.9047 24.7369C16.9677 22.3744 15.2159 19.2244 14.4961 13.0758H11.6362C12.9571 23.3165 16.8936 26.5765 17.934 27.2031C18.5225 27.5598 19.0306 27.5429 19.5683 27.237C20.413 26.7522 22.9512 24.195 24.3568 21.1985C24.9464 21.1963 25.6555 21.1286 26.3626 20.9667V18.9503C25.9297 19.0508 25.5116 19.0953 25.1348 19.0953C23.0147 19.0953 21.3836 17.6029 21.3836 15.0075Z" fill="#798DA3"/>
</svg>
