<svg width="38" height="38" viewBox="0 0 38 38" fill="none" xmlns="http://www.w3.org/2000/svg">
<g clip-path="url(#clip0_1_665)">
<path d="M28 13.4189C27.3306 13.7125 26.6174 13.9071 25.8737 14.0016C26.6387 13.5449 27.2226 12.8271 27.4971 11.962C26.7839 12.3872 25.9964 12.6876 25.1571 12.8553C24.4799 12.1341 23.5146 11.6875 22.4616 11.6875C20.4186 11.6875 18.7739 13.3458 18.7739 15.3786C18.7739 15.6711 18.7986 15.9524 18.8594 16.2201C15.7915 16.0705 13.0769 14.6001 11.2532 12.3603C10.9349 12.9126 10.7481 13.5449 10.7481 14.2255C10.7481 15.5035 11.4062 16.6364 12.3872 17.2922C11.7944 17.281 11.2127 17.1089 10.72 16.8378C10.72 16.849 10.72 16.8636 10.72 16.8782C10.72 18.6715 11.9991 20.161 13.6765 20.5041C13.3761 20.5862 13.0487 20.6256 12.709 20.6256C12.4727 20.6256 12.2342 20.6121 12.0104 20.5626C12.4885 22.024 13.8453 23.0984 15.4585 23.1332C14.203 24.1154 12.6089 24.7071 10.8831 24.7071C10.5805 24.7071 10.2902 24.6936 10 24.6565C11.6346 25.7106 13.5719 26.3125 15.661 26.3125C22.4515 26.3125 26.164 20.6875 26.164 15.8117C26.164 15.6486 26.1584 15.4911 26.1505 15.3348C26.8829 14.815 27.4982 14.1659 28 13.4189Z" fill="#798DA3"/>
</g>
<circle opacity="0.15" cx="19" cy="19" r="18.5" stroke="#798DA3"/>
<defs>
<clipPath id="clip0_1_665">
<rect width="18" height="18" fill="white" transform="translate(10 10)"/>
</clipPath>
</defs>
</svg>
