<svg width="38" height="38" viewBox="0 0 38 38" fill="none" xmlns="http://www.w3.org/2000/svg">
<circle opacity="0.15" cx="19" cy="19" r="18.5" stroke="#798DA3"/>
<path d="M25.2235 17.9909C25.0649 17.938 24.9119 17.8874 24.7656 17.839C23.6451 17.4734 22.9701 17.2517 22.9701 16.3461C22.9701 15.6115 23.5157 15.0794 24.2673 15.0794C24.8433 15.0794 25.273 15.328 25.6578 15.8883C25.6938 15.94 25.7624 15.9591 25.8175 15.9288L26.9481 15.3291C26.9785 15.3134 27.0021 15.2852 27.0111 15.2504C27.0201 15.2155 27.0168 15.1795 27.001 15.148C26.3946 14.0298 25.5216 13.4864 24.3302 13.4864C22.5179 13.4864 21.3456 14.626 21.3456 16.3889C21.3456 18.1911 22.4796 18.9212 24.5699 19.6356C25.7804 20.0552 26.317 20.2769 26.317 21.1724C26.317 22.1792 25.4429 22.9026 24.2504 22.8599C23.0005 22.816 22.6225 22.1286 22.1466 21.0014C21.3411 19.0923 20.4242 16.8648 20.4164 16.8434C19.4972 14.6384 17.6736 13.375 15.4135 13.375C12.4289 13.375 10 15.8984 10 19.0011C10 22.1016 12.4289 24.625 15.4135 24.625C17.0414 24.625 18.568 23.8757 19.6007 22.5674C19.63 22.5291 19.6379 22.4774 19.6188 22.4324L18.937 20.7966C18.9179 20.7516 18.874 20.7201 18.8256 20.7179C18.7761 20.7156 18.7323 20.7437 18.7098 20.7876C18.0651 22.0667 16.8017 22.861 15.4135 22.861C13.3649 22.861 11.6988 21.1296 11.6988 19C11.6988 16.8704 13.3649 15.139 15.4135 15.139C16.9052 15.139 18.271 16.0581 18.8144 17.4306L20.503 21.43L20.6976 21.8789C21.4604 23.725 22.582 24.553 24.3381 24.5598C26.4261 24.5598 28 23.122 28 21.2163C28 19.3049 26.9819 18.5871 25.2235 17.9909Z" fill="#798DA3"/>
</svg>
